<?xml version="1.0" encoding="utf-8"?>
<!-- Generator: Adobe Illustrator 19.2.0, SVG Export Plug-In . SVG Version: 6.00 Build 0)  -->
<svg version="1.1" id="Layer_1" xmlns="http://www.w3.org/2000/svg" xmlns:xlink="http://www.w3.org/1999/xlink" x="0px" y="0px"
	 viewBox="0 0 64 64" style="enable-background:new 0 0 64 64;" xml:space="preserve">
<style type="text/css">
	.st0{fill:url(#SVGID_1_);}
	.st1{fill:url(#SVGID_2_);}
	.st2{fill:url(#SVGID_3_);}
	.st3{fill:url(#SVGID_4_);}
	.st4{fill:url(#SVGID_5_);}
</style>
<linearGradient id="SVGID_1_" gradientUnits="userSpaceOnUse" x1="-94.5894" y1="-732.572" x2="-10.3215" y2="-690.825" gradientTransform="matrix(1 0 0 -1 78 -679)">
	<stop  offset="0" style="stop-color:#FFFFFF"/>
	<stop  offset="1" style="stop-color:#F9FFFF"/>
</linearGradient>
<path class="st0" d="M48.3,29.1c2,0,2.6-2.1,2.6-2.8c0-0.7-0.3-1-0.8-1c-0.7,0-25.7,0-25.7,0l20.8,3.9
	C45.4,29.1,47.9,29.1,48.3,29.1z"/>
<linearGradient id="SVGID_2_" gradientUnits="userSpaceOnUse" x1="-47.7775" y1="-714.6631" x2="-25.6586" y2="-704.5063" gradientTransform="matrix(1 0 0 -1 78 -679)">
	<stop  offset="0" style="stop-color:#FFFFFF"/>
	<stop  offset="1" style="stop-color:#F9FFFF"/>
</linearGradient>
<path class="st1" d="M41.3,33.3c0,3.1,2.2,3.5,2.8,3.5c0.8,0,1.1-0.4,1.1-1.2c0-0.5,0-6.6,0-6.6l-4-3.8l-4.9,0.1v-0.1l5,5v2.5
	l0.1-0.1C41.3,33,41.3,33.2,41.3,33.3z"/>
<linearGradient id="SVGID_3_" gradientUnits="userSpaceOnUse" x1="-56.4784" y1="-717.1546" x2="-31.0988" y2="-695.9019" gradientTransform="matrix(1 0 0 -1 78 -679)">
	<stop  offset="0" style="stop-color:#FFFFFF"/>
	<stop  offset="1" style="stop-color:#F9FFFF"/>
</linearGradient>
<path class="st2" d="M31.2,25.3l-7.4,3.3v3c0,6.1,10.6,6.1,10.6,0.1c0-0.8-0.4-0.2,0,0.2c0.4,0.4,1.1,1.1,1.5,1.5
	c0.1,0,2.8-2,2.7-1.9l-0.5-1.2L31.2,25.3z"/>
<linearGradient id="SVGID_4_" gradientUnits="userSpaceOnUse" x1="-57.5075" y1="-720.0393" x2="-34.7684" y2="-698.5807" gradientTransform="matrix(1 0 0 -1 78 -679)">
	<stop  offset="0" style="stop-color:#FFFFFF"/>
	<stop  offset="1" style="stop-color:#F9FFFF"/>
</linearGradient>
<path class="st3" d="M36.4,25.3c0,0-11.6,0-12.1,0s-0.6,0.4-0.6,0.7v5.6c0,0,0,0,0.1,0c0.8,0,3.9,0,5.4,0c1.4,0,2.1-0.9,2.1-2.1
	c0-1.4,0-2.8,0-2.8l6.3,4.8l-2.8,3c-1.4,1.5-1.1,3.3-0.2,4c0.9,0.8,1.1,0.6,1.6,0.1c0.7-0.6,5.2-5.5,5.2-5.5v-3.8L36.4,25.3z"/>
<linearGradient id="SVGID_5_" gradientUnits="userSpaceOnUse" x1="-65.1342" y1="-715.0878" x2="-42.7337" y2="-692.8502" gradientTransform="matrix(1 0 0 -1 78 -679)">
	<stop  offset="0" style="stop-color:#FFFFFF"/>
	<stop  offset="1" style="stop-color:#F9FFFF"/>
</linearGradient>
<path class="st4" d="M20.3,25.3c-0.5,0-4.5,0-5.3,0c-0.5,0-0.9,0.1-0.9,0.5c0,0.2,0,7.3,0,9.6c0,0.5,0.6,0.6,0.9,0.6h5.3l0,0
	C26.8,35.9,26.8,25.3,20.3,25.3z"/>
</svg>
