<?xml version="1.0" encoding="utf-8"?>
<!-- Generator: Adobe Illustrator 19.2.0, SVG Export Plug-In . SVG Version: 6.00 Build 0)  -->
<svg version="1.1" id="Layer_1" xmlns="http://www.w3.org/2000/svg" xmlns:xlink="http://www.w3.org/1999/xlink" x="0px" y="0px"
	 viewBox="0 0 64 64" style="enable-background:new 0 0 64 64;" xml:space="preserve">
<style type="text/css">
	.st0{fill:url(#SVGID_1_);}
</style>
<linearGradient id="SVGID_1_" gradientUnits="userSpaceOnUse" x1="23.0281" y1="30.8859" x2="44.0037" y2="30.8859" gradientTransform="matrix(1 0 0 -1 0 64)">
	<stop  offset="0" style="stop-color:#000000"/>
	<stop  offset="1" style="stop-color:#0D0D0D"/>
</linearGradient>
<path class="st0" d="M44,36.9c-2.4,3.4-6.6,5.4-11,4.8c-5.2-0.6-9-5.3-8.5-10.6c0.5-4.2,4.3-7.2,8.5-6.8c1.6,0.2,3.1,1,4.1,2.3
	c1,1.3,1.4,2.8,1.3,4.4c-0.2,1.3-0.8,2.4-1.8,3.2c-1,0.8-2.3,1.1-3.5,1c-2.1-0.2-3.5-2.1-3.3-4.2c0.2-1.6,1.6-2.7,3.2-2.6
	c1,0.1,1.9,0.9,2,1.9c-0.8,0.5-3.6,1.7-2.9,1.6c1.4-0.2,4.3-0.6,4.3-0.8c0.1-2-1.2-3.8-3.2-4c-2.3-0.2-4.5,1.4-4.8,3.9
	c-0.3,2.8,1.8,5.4,4.6,5.7c1.6,0.2,3.3-0.3,4.6-1.3c1.3-1,2.1-2.5,2.3-4.2c0.2-2-0.3-3.9-1.6-5.5c-1.3-1.5-3.1-2.6-5-2.7
	c-5-0.6-9.5,3.1-10,8c-0.6,6,3.7,11.5,9.7,12.2c0.5,0.1,1,0.1,1.5,0.1c3.8,0,7.2-1.6,9.7-4.2L44,36.9z"/>
</svg>
